<svg width="427" height="192" viewBox="0 0 427 192" xmlns="http://www.w3.org/2000/svg">
    <path d="M217.801 8.90909H231.011V81.1392C231.011 88.5966 229.254 95.255 225.738 101.114C222.258 106.938 217.339 111.537 210.983 114.911C204.626 118.249 197.169 119.918 188.611 119.918C180.053 119.918 172.595 118.249 166.239 114.911C159.882 111.537 154.946 106.938 151.43 101.114C147.95 95.255 146.21 88.5966 146.21 81.1392V8.90909H159.42V80.0739C159.42 85.4006 160.592 90.1413 162.936 94.2962C165.28 98.4155 168.618 101.665 172.95 104.044C177.318 106.388 182.538 107.56 188.611 107.56C194.683 107.56 199.903 106.388 204.271 104.044C208.639 101.665 211.977 98.4155 214.286 94.2962C216.629 90.1413 217.801 85.4006 217.801 80.0739V8.90909ZM257.392 118V8.90909H294.253C302.775 8.90909 309.771 10.3651 315.24 13.277C320.709 16.1534 324.757 20.1129 327.385 25.1555C330.013 30.1982 331.327 35.9332 331.327 42.3608C331.327 48.7884 330.013 54.4879 327.385 59.4595C324.757 64.4311 320.726 68.3374 315.293 71.1783C309.86 73.9837 302.917 75.3864 294.466 75.3864H264.636V63.4545H294.04C299.863 63.4545 304.551 62.6023 308.102 60.8977C311.689 59.1932 314.281 56.7784 315.879 53.6534C317.513 50.4929 318.329 46.7287 318.329 42.3608C318.329 37.9929 317.513 34.1754 315.879 30.9084C314.246 27.6413 311.635 25.12 308.049 23.3445C304.462 21.5334 299.721 20.6278 293.827 20.6278H270.602V118H257.392ZM308.741 68.9943L335.588 118H320.247L293.827 68.9943H308.741ZM353.339 118V8.90909H366.549V106.281H417.26V118H353.339Z" fill="white"/>
    <path d="M32.6562 177.75C28.2031 177.75 24.375 177.177 21.1719 176.031C17.9688 174.911 15.2995 173.427 13.1641 171.578C11.0547 169.755 9.375 167.802 8.125 165.719L15.4688 160.563C16.3021 161.656 17.3568 162.906 18.6328 164.312C19.9089 165.745 21.6536 166.982 23.8672 168.023C26.1068 169.091 29.0365 169.625 32.6562 169.625C37.5 169.625 41.4974 168.453 44.6484 166.109C47.7995 163.766 49.375 160.094 49.375 155.094V142.906H48.5938C47.9167 144 46.9531 145.354 45.7031 146.969C44.4792 148.557 42.7083 149.977 40.3906 151.227C38.099 152.451 35 153.062 31.0938 153.062C26.25 153.062 21.901 151.917 18.0469 149.625C14.2188 147.333 11.1849 144 8.94531 139.625C6.73177 135.25 5.625 129.937 5.625 123.687C5.625 117.542 6.70573 112.19 8.86719 107.633C11.0286 103.049 14.0365 99.5078 17.8906 97.0078C21.7448 94.4818 26.1979 93.2188 31.25 93.2188C35.1563 93.2188 38.2552 93.8698 40.5469 95.1719C42.8646 96.4479 44.6354 97.9062 45.8594 99.5469C47.1094 101.161 48.0729 102.49 48.75 103.531H49.6875V94H58.5938V155.719C58.5938 160.875 57.4219 165.068 55.0781 168.297C52.7604 171.552 49.6354 173.935 45.7031 175.445C41.7969 176.982 37.4479 177.75 32.6562 177.75ZM32.3438 144.781C36.0417 144.781 39.1667 143.935 41.7188 142.242C44.2708 140.549 46.2109 138.115 47.5391 134.938C48.8672 131.76 49.5313 127.958 49.5313 123.531C49.5313 119.208 48.8802 115.393 47.5781 112.086C46.276 108.779 44.349 106.187 41.7969 104.312C39.2448 102.437 36.0938 101.5 32.3438 101.5C28.4375 101.5 25.1823 102.49 22.5781 104.469C20 106.448 18.0599 109.104 16.7578 112.438C15.4818 115.771 14.8438 119.469 14.8438 123.531C14.8438 127.698 15.4948 131.383 16.7969 134.586C18.125 137.763 20.0781 140.263 22.6563 142.086C25.2604 143.883 28.4896 144.781 32.3438 144.781ZM99.8438 155.25C94.4271 155.25 89.6745 153.961 85.5859 151.383C81.5234 148.805 78.3464 145.198 76.0547 140.562C73.7891 135.927 72.6563 130.51 72.6563 124.312C72.6563 118.062 73.7891 112.607 76.0547 107.945C78.3464 103.284 81.5234 99.6641 85.5859 97.0859C89.6745 94.5078 94.4271 93.2188 99.8438 93.2188C105.26 93.2188 110 94.5078 114.063 97.0859C118.151 99.6641 121.328 103.284 123.594 107.945C125.885 112.607 127.031 118.062 127.031 124.312C127.031 130.51 125.885 135.927 123.594 140.562C121.328 145.198 118.151 148.805 114.063 151.383C110 153.961 105.26 155.25 99.8438 155.25ZM99.8438 146.969C103.958 146.969 107.344 145.914 110 143.805C112.656 141.695 114.622 138.922 115.898 135.484C117.174 132.047 117.813 128.323 117.813 124.312C117.813 120.302 117.174 116.565 115.898 113.102C114.622 109.638 112.656 106.839 110 104.703C107.344 102.568 103.958 101.5 99.8438 101.5C95.7292 101.5 92.3438 102.568 89.6875 104.703C87.0313 106.839 85.0651 109.638 83.7891 113.102C82.513 116.565 81.875 120.302 81.875 124.312C81.875 128.323 82.513 132.047 83.7891 135.484C85.0651 138.922 87.0313 141.695 89.6875 143.805C92.3438 145.914 95.7292 146.969 99.8438 146.969Z" fill="#51BDDF"/>
    <line x1="8.3699" y1="82.9701" x2="124.911" y2="82.9701" stroke="black" stroke-width="2"/>
    <line x1="150.493" y1="136.492" x2="397.788" y2="136.492" stroke="black" stroke-width="2"/>
</svg>
