<svg width="200" height="100" viewBox="0 0 200 100" fill="none" xmlns="http://www.w3.org/2000/svg">
    <path d="M80.267 6.63636H84.6705V30.7131C84.6705 33.1989 84.0845 35.4183 82.9126 37.3714C81.7526 39.3127 80.1132 40.8456 77.9943 41.9702C75.8755 43.0829 73.3897 43.6392 70.5369 43.6392C67.6842 43.6392 65.1984 43.0829 63.0795 41.9702C60.9607 40.8456 59.3153 39.3127 58.1435 37.3714C56.9834 35.4183 56.4034 33.1989 56.4034 30.7131V6.63636H60.8068V30.358C60.8068 32.1335 61.1974 33.7138 61.9787 35.0987C62.7599 36.4718 63.8726 37.5549 65.3168 38.348C66.7727 39.1293 68.5128 39.5199 70.5369 39.5199C72.5611 39.5199 74.3011 39.1293 75.7571 38.348C77.2131 37.5549 78.3258 36.4718 79.0952 35.0987C79.8764 33.7138 80.267 32.1335 80.267 30.358V6.63636ZM93.464 43V6.63636H105.751C108.592 6.63636 110.924 7.12168 112.747 8.09233C114.57 9.05113 115.919 10.371 116.795 12.0518C117.671 13.7327 118.109 15.6444 118.109 17.7869C118.109 19.9295 117.671 21.8293 116.795 23.4865C115.919 25.1437 114.575 26.4458 112.764 27.3928C110.953 28.3279 108.639 28.7955 105.822 28.7955H95.8787V24.8182H105.68C107.621 24.8182 109.184 24.5341 110.367 23.9659C111.563 23.3977 112.427 22.5928 112.96 21.5511C113.504 20.4976 113.776 19.2429 113.776 17.7869C113.776 16.331 113.504 15.0585 112.96 13.9695C112.415 12.8804 111.545 12.04 110.35 11.4482C109.154 10.8445 107.574 10.5426 105.609 10.5426H97.8674V43H93.464ZM110.58 26.6648L119.529 43H114.416L105.609 26.6648H110.58ZM125.446 43V6.63636H129.85V39.0938H146.753V43H125.446Z" fill="white"/>
    <path d="M15.875 60.6364C14.2557 60.6364 12.8636 60.428 11.6989 60.0114C10.5341 59.6042 9.56345 59.0644 8.78693 58.392C8.01989 57.7292 7.40909 57.0189 6.95455 56.2614L9.625 54.3864C9.92803 54.7841 10.3116 55.2386 10.7756 55.75C11.2396 56.2708 11.8741 56.7206 12.679 57.0994C13.4934 57.4877 14.5587 57.6818 15.875 57.6818C17.6364 57.6818 19.09 57.2557 20.2358 56.4034C21.3816 55.5511 21.9545 54.2159 21.9545 52.3977V47.9659H21.6705C21.4242 48.3636 21.0739 48.8561 20.6193 49.4432C20.1742 50.0208 19.5303 50.5369 18.6875 50.9915C17.8542 51.4366 16.7273 51.6591 15.3068 51.6591C13.5455 51.6591 11.964 51.2424 10.5625 50.4091C9.17045 49.5758 8.06723 48.3636 7.25284 46.7727C6.44792 45.1818 6.04545 43.25 6.04545 40.9773C6.04545 38.7424 6.43845 36.7964 7.22443 35.1392C8.01042 33.4725 9.10417 32.1847 10.5057 31.2756C11.9072 30.357 13.5265 29.8977 15.3636 29.8977C16.7841 29.8977 17.911 30.1345 18.7443 30.608C19.5871 31.072 20.2311 31.6023 20.6761 32.1989C21.1307 32.786 21.4811 33.2689 21.7273 33.6477H22.0682V30.1818H25.3068V52.625C25.3068 54.5 24.8807 56.0246 24.0284 57.1989C23.1856 58.3826 22.0492 59.2491 20.6193 59.7983C19.1989 60.357 17.6174 60.6364 15.875 60.6364ZM15.7614 48.6477C17.1061 48.6477 18.2424 48.34 19.1705 47.7244C20.0985 47.1089 20.804 46.2235 21.2869 45.0682C21.7699 43.9129 22.0114 42.5303 22.0114 40.9205C22.0114 39.3485 21.7746 37.9612 21.3011 36.7585C20.8277 35.5559 20.1269 34.6136 19.1989 33.9318C18.2708 33.25 17.125 32.9091 15.7614 32.9091C14.3409 32.9091 13.1572 33.2689 12.2102 33.9886C11.2727 34.7083 10.5672 35.6742 10.0938 36.8864C9.62973 38.0985 9.39773 39.4432 9.39773 40.9205C9.39773 42.4356 9.63447 43.7756 10.108 44.9403C10.5909 46.0956 11.3011 47.0047 12.2386 47.6676C13.1856 48.321 14.3598 48.6477 15.7614 48.6477ZM40.3068 52.4545C38.3371 52.4545 36.6089 51.9858 35.1222 51.0483C33.6449 50.1108 32.4896 48.7992 31.6562 47.1136C30.8324 45.428 30.4205 43.4583 30.4205 41.2045C30.4205 38.9318 30.8324 36.9479 31.6562 35.2528C32.4896 33.5578 33.6449 32.2415 35.1222 31.304C36.6089 30.3665 38.3371 29.8977 40.3068 29.8977C42.2765 29.8977 44 30.3665 45.4773 31.304C46.964 32.2415 48.1193 33.5578 48.9432 35.2528C49.7765 36.9479 50.1932 38.9318 50.1932 41.2045C50.1932 43.4583 49.7765 45.428 48.9432 47.1136C48.1193 48.7992 46.964 50.1108 45.4773 51.0483C44 51.9858 42.2765 52.4545 40.3068 52.4545ZM40.3068 49.4432C41.803 49.4432 43.0341 49.0597 44 48.2926C44.9659 47.5256 45.6809 46.517 46.1449 45.267C46.6089 44.017 46.8409 42.6629 46.8409 41.2045C46.8409 39.7462 46.6089 38.3873 46.1449 37.1278C45.6809 35.8684 44.9659 34.8504 44 34.0739C43.0341 33.2973 41.803 32.9091 40.3068 32.9091C38.8106 32.9091 37.5795 33.2973 36.6136 34.0739C35.6477 34.8504 34.9328 35.8684 34.4688 37.1278C34.0047 38.3873 33.7727 39.7462 33.7727 41.2045C33.7727 42.6629 34.0047 44.017 34.4688 45.267C34.9328 46.517 35.6477 47.5256 36.6136 48.2926C37.5795 49.0597 38.8106 49.4432 40.3068 49.4432Z" fill="#51BDDF"/>
    <line x1="8" y1="24.5" x2="49" y2="24.5" stroke="black"/>
    <line x1="58" y1="51.5" x2="145" y2="51.5" stroke="black"/>
</svg>
